<mxfile host="app.diagrams.net" modified="2023-10-10T11:07:41.534Z" agent="Mozilla/5.0 (Windows NT 10.0; Win64; x64) AppleWebKit/537.36 (KHTML, like Gecko) Chrome/117.0.0.0 Safari/537.36" etag="irciDL-7XDOIEwMe0toS" version="22.0.4" type="github">
  <diagram name="Página-1" id="gJnSLEY-dJgYJUhwfQzm">
    <mxGraphModel dx="1434" dy="790" grid="1" gridSize="10" guides="1" tooltips="1" connect="1" arrows="1" fold="1" page="1" pageScale="1" pageWidth="827" pageHeight="1169" math="0" shadow="0">
      <root>
        <mxCell id="0" />
        <mxCell id="1" parent="0" />
        <mxCell id="sFrLrBy43bsKgz6_wrTf-4" style="edgeStyle=orthogonalEdgeStyle;rounded=0;orthogonalLoop=1;jettySize=auto;html=1;entryX=0.5;entryY=0;entryDx=0;entryDy=0;" edge="1" parent="1" source="sFrLrBy43bsKgz6_wrTf-1" target="sFrLrBy43bsKgz6_wrTf-2">
          <mxGeometry relative="1" as="geometry" />
        </mxCell>
        <mxCell id="sFrLrBy43bsKgz6_wrTf-1" value="INÍCIO" style="rounded=1;whiteSpace=wrap;html=1;" vertex="1" parent="1">
          <mxGeometry x="354" y="40" width="120" height="60" as="geometry" />
        </mxCell>
        <mxCell id="sFrLrBy43bsKgz6_wrTf-5" style="edgeStyle=orthogonalEdgeStyle;rounded=0;orthogonalLoop=1;jettySize=auto;html=1;exitX=0.5;exitY=1;exitDx=0;exitDy=0;entryX=0.5;entryY=0;entryDx=0;entryDy=0;" edge="1" parent="1" source="sFrLrBy43bsKgz6_wrTf-2" target="sFrLrBy43bsKgz6_wrTf-3">
          <mxGeometry relative="1" as="geometry" />
        </mxCell>
        <mxCell id="sFrLrBy43bsKgz6_wrTf-2" value="LER X,Y" style="shape=parallelogram;perimeter=parallelogramPerimeter;whiteSpace=wrap;html=1;fixedSize=1;" vertex="1" parent="1">
          <mxGeometry x="354" y="180" width="120" height="60" as="geometry" />
        </mxCell>
        <mxCell id="sFrLrBy43bsKgz6_wrTf-3" value="X&amp;gt;Y" style="rhombus;whiteSpace=wrap;html=1;" vertex="1" parent="1">
          <mxGeometry x="374" y="300" width="80" height="80" as="geometry" />
        </mxCell>
        <mxCell id="sFrLrBy43bsKgz6_wrTf-6" value="RES = X - Y" style="rounded=0;whiteSpace=wrap;html=1;" vertex="1" parent="1">
          <mxGeometry x="170" y="380" width="120" height="60" as="geometry" />
        </mxCell>
        <mxCell id="sFrLrBy43bsKgz6_wrTf-7" value="RES = Y - X" style="rounded=0;whiteSpace=wrap;html=1;" vertex="1" parent="1">
          <mxGeometry x="540" y="380" width="120" height="60" as="geometry" />
        </mxCell>
        <mxCell id="sFrLrBy43bsKgz6_wrTf-19" style="edgeStyle=orthogonalEdgeStyle;rounded=0;orthogonalLoop=1;jettySize=auto;html=1;entryX=0.5;entryY=0;entryDx=0;entryDy=0;" edge="1" parent="1" source="sFrLrBy43bsKgz6_wrTf-8" target="sFrLrBy43bsKgz6_wrTf-9">
          <mxGeometry relative="1" as="geometry" />
        </mxCell>
        <mxCell id="sFrLrBy43bsKgz6_wrTf-8" value="ESCREVER RES" style="shape=parallelogram;perimeter=parallelogramPerimeter;whiteSpace=wrap;html=1;fixedSize=1;" vertex="1" parent="1">
          <mxGeometry x="354" y="530" width="120" height="60" as="geometry" />
        </mxCell>
        <mxCell id="sFrLrBy43bsKgz6_wrTf-9" value="FIM" style="rounded=1;whiteSpace=wrap;html=1;" vertex="1" parent="1">
          <mxGeometry x="354" y="640" width="120" height="60" as="geometry" />
        </mxCell>
        <mxCell id="sFrLrBy43bsKgz6_wrTf-12" value="" style="endArrow=classic;html=1;rounded=0;exitX=0;exitY=0.5;exitDx=0;exitDy=0;entryX=0.5;entryY=0;entryDx=0;entryDy=0;" edge="1" parent="1" source="sFrLrBy43bsKgz6_wrTf-3" target="sFrLrBy43bsKgz6_wrTf-6">
          <mxGeometry width="50" height="50" relative="1" as="geometry">
            <mxPoint x="390" y="430" as="sourcePoint" />
            <mxPoint x="270" y="380" as="targetPoint" />
            <Array as="points">
              <mxPoint x="300" y="340" />
              <mxPoint x="230" y="340" />
            </Array>
          </mxGeometry>
        </mxCell>
        <mxCell id="sFrLrBy43bsKgz6_wrTf-13" value="" style="endArrow=classic;html=1;rounded=0;exitX=1;exitY=0.5;exitDx=0;exitDy=0;entryX=0.5;entryY=0;entryDx=0;entryDy=0;" edge="1" parent="1" source="sFrLrBy43bsKgz6_wrTf-3" target="sFrLrBy43bsKgz6_wrTf-7">
          <mxGeometry width="50" height="50" relative="1" as="geometry">
            <mxPoint x="390" y="430" as="sourcePoint" />
            <mxPoint x="610" y="340" as="targetPoint" />
            <Array as="points">
              <mxPoint x="600" y="340" />
            </Array>
          </mxGeometry>
        </mxCell>
        <mxCell id="sFrLrBy43bsKgz6_wrTf-14" value="SIM" style="text;html=1;strokeColor=none;fillColor=none;align=center;verticalAlign=middle;whiteSpace=wrap;rounded=0;" vertex="1" parent="1">
          <mxGeometry x="270" y="310" width="60" height="30" as="geometry" />
        </mxCell>
        <mxCell id="sFrLrBy43bsKgz6_wrTf-15" value="NÃO" style="text;html=1;strokeColor=none;fillColor=none;align=center;verticalAlign=middle;whiteSpace=wrap;rounded=0;" vertex="1" parent="1">
          <mxGeometry x="490" y="310" width="60" height="30" as="geometry" />
        </mxCell>
        <mxCell id="sFrLrBy43bsKgz6_wrTf-21" value="" style="ellipse;whiteSpace=wrap;html=1;align=center;aspect=fixed;fillColor=none;strokeColor=none;resizable=0;perimeter=centerPerimeter;rotatable=0;allowArrows=0;points=[];outlineConnect=1;" vertex="1" parent="1">
          <mxGeometry x="400" y="400" width="10" height="10" as="geometry" />
        </mxCell>
        <mxCell id="sFrLrBy43bsKgz6_wrTf-23" value="" style="endArrow=classic;html=1;rounded=0;exitX=0.5;exitY=1;exitDx=0;exitDy=0;entryX=0.5;entryY=0;entryDx=0;entryDy=0;" edge="1" parent="1" source="sFrLrBy43bsKgz6_wrTf-6" target="sFrLrBy43bsKgz6_wrTf-8">
          <mxGeometry width="50" height="50" relative="1" as="geometry">
            <mxPoint x="390" y="430" as="sourcePoint" />
            <mxPoint x="440" y="380" as="targetPoint" />
            <Array as="points">
              <mxPoint x="230" y="480" />
              <mxPoint x="414" y="480" />
            </Array>
          </mxGeometry>
        </mxCell>
        <mxCell id="sFrLrBy43bsKgz6_wrTf-25" value="" style="endArrow=classic;html=1;rounded=0;exitX=0.5;exitY=1;exitDx=0;exitDy=0;entryX=0.5;entryY=0;entryDx=0;entryDy=0;" edge="1" parent="1" source="sFrLrBy43bsKgz6_wrTf-7" target="sFrLrBy43bsKgz6_wrTf-8">
          <mxGeometry width="50" height="50" relative="1" as="geometry">
            <mxPoint x="240" y="460" as="sourcePoint" />
            <mxPoint x="424" y="550" as="targetPoint" />
            <Array as="points">
              <mxPoint x="600" y="480" />
              <mxPoint x="414" y="480" />
            </Array>
          </mxGeometry>
        </mxCell>
      </root>
    </mxGraphModel>
  </diagram>
</mxfile>
